<?xml version="1.0" standalone="no"?>
<!DOCTYPE svg PUBLIC "-//W3C//DTD SVG 20010904//EN"
 "http://www.w3.org/TR/2001/REC-SVG-20010904/DTD/svg10.dtd">
<svg version="1.0" xmlns="http://www.w3.org/2000/svg"
 width="512.000000pt" height="512.000000pt" viewBox="0 0 512.000000 512.000000"
 preserveAspectRatio="xMidYMid meet">

<g transform="translate(0.000000,512.000000) scale(0.100000,-0.100000)"
fill="#000000" stroke="none">
<path d="M2393 5070 c-424 -45 -795 -212 -1101 -495 -93 -86 -122 -156 -100
-243 15 -59 87 -136 143 -151 94 -26 148 -5 266 104 187 172 420 291 682 347
147 31 408 31 557 -1 270 -58 499 -173 694 -351 113 -104 173 -126 268 -100
51 15 122 95 137 156 22 86 -7 152 -105 244 -262 244 -596 408 -960 470 -134
23 -362 33 -481 20z"/>
<path d="M2375 4084 c-80 -17 -201 -67 -282 -116 -75 -45 -180 -142 -203 -189
-67 -131 39 -299 189 -299 56 0 86 14 147 69 67 59 144 98 232 117 84 17 110
17 195 -1 84 -18 156 -54 224 -111 28 -24 68 -51 87 -59 132 -55 286 50 286
195 0 69 -25 114 -105 188 -85 80 -196 145 -315 184 -85 28 -110 31 -240 34
-104 3 -165 -1 -215 -12z"/>
<path d="M2480 3184 c-42 -18 -86 -58 -108 -99 -15 -26 -18 -86 -22 -490 l-5
-460 -940 -5 c-924 -5 -941 -5 -995 -26 -159 -60 -283 -190 -333 -349 -22 -69
-22 -79 -22 -660 0 -544 1 -595 18 -650 30 -96 74 -169 146 -238 71 -69 131
-104 226 -134 57 -17 149 -18 2125 -18 l2065 0 71 26 c188 69 319 217 359 407
22 100 21 1116 0 1217 -38 181 -168 331 -343 398 -57 22 -59 22 -1002 27
l-945 5 -5 460 c-5 503 -3 487 -67 547 -58 56 -151 73 -223 42z m2109 -1492
c20 -9 41 -28 48 -42 10 -19 13 -155 13 -564 l0 -538 -34 -34 -34 -34 -2022 2
-2022 3 -29 33 -29 32 0 541 c0 586 0 582 55 611 19 10 418 12 2021 10 1876
-2 2000 -3 2033 -20z"/>
<path d="M2335 1291 c-150 -69 -168 -274 -32 -368 l40 -28 217 0 217 0 41 29
c105 72 121 227 34 320 -55 58 -88 66 -292 66 -159 0 -191 -3 -225 -19z"/>
</g>
</svg>
